<svg xmlns="http://www.w3.org/2000/svg" viewBox="0 0 960 600" role="img" aria-labelledby="title desc">
  <title id="title">taskFlow placeholder app image</title>
  <desc id="desc">abstract mobile productivity screens.</desc>
  <rect width="960" height="600" fill="#15191d"/>
  <rect x="84" y="72" width="792" height="456" rx="28" fill="#f7f5ef"/>
  <rect x="150" y="118" width="190" height="360" rx="26" fill="#20262b"/>
  <rect x="178" y="154" width="132" height="18" rx="9" fill="#08a7a5"/>
  <rect x="178" y="206" width="120" height="12" rx="6" fill="#f7f5ef" opacity=".7"/>
  <rect x="178" y="244" width="108" height="12" rx="6" fill="#f7f5ef" opacity=".45"/>
  <rect x="178" y="300" width="132" height="78" rx="12" fill="#ef6f61"/>
  <rect x="388" y="134" width="372" height="62" rx="12" fill="#15191d"/>
  <rect x="420" y="158" width="170" height="14" rx="7" fill="#60a56f"/>
  <rect x="388" y="226" width="280" height="34" rx="17" fill="#d8d0c2"/>
  <rect x="388" y="286" width="330" height="34" rx="17" fill="#d8d0c2"/>
  <rect x="388" y="346" width="236" height="34" rx="17" fill="#d8d0c2"/>
  <circle cx="760" cy="386" r="72" fill="#08a7a5"/>
</svg>
